<?xml version="1.0" ?><!DOCTYPE svg  PUBLIC '-//W3C//DTD SVG 1.1//EN'  'http://www.w3.org/Graphics/SVG/1.1/DTD/svg11.dtd'><svg enable-background="new 0 0 256 256" height="256px" id="Layer_1" version="1.1" viewBox="0 0 256 256" width="256px" xml:space="preserve" xmlns="http://www.w3.org/2000/svg" xmlns:xlink="http://www.w3.org/1999/xlink"><circle cx="128" cy="128" fill="#6EBEC5" r="128"/><path d="M36.706,163.974l92.007,92.009c58.757-0.323,108.115-40.229,122.808-94.411l-31.285-31.285L36.706,163.974z" fill="#5EA3A5"/><g><path d="M103.932,86.252c-5.436,5.443-3.909,18.964-3.909,18.964l18.08-7.177   C118.104,98.039,107.515,82.664,103.932,86.252z" fill="#7FDFE2"/><path d="M40.085,143.312c-1.407-5.536,3.258-46.127,9.121-45.785c5.863,0.342,15.311,18.109,31.924,12.643   c16.614-5.467,32.25-17.768,36.486-14.351c4.235,3.417,40.336,28.977,61.182,27.951c20.851-1.024,42.732-1.985,42.083,10.66   c-0.654,12.639-8.47,15.375-22.152,21.864c-5.257,2.496-28.171,8.043-52.608,6.149c-39.169-3.032-85.283-15.242-91.701-15.032   C43.993,147.752,41.387,148.438,40.085,143.312z" fill="#3E6375"/><path d="M153.176,165.02c-0.761,2.871,0.226,5.314,2.818,5.631c2.593,0.315,23.369-0.931,25.869-1.988   c2.5-1.059,2.741-5.835,0.472-6.132C180.065,162.232,153.579,163.502,153.176,165.02z" fill="#F9D54B"/><path d="M120.873,164.327c0,5.021-50.493,6.489-53.913,6.489c-3.421,0-0.978-7.176-4.887-5.467   c-3.908,1.709-1.466,3.76-6.842,4.441c-5.375,0.686-17.59-2.391-18.24-6.15c-0.653-3.757-1.305-11.274,2.116-11.274   c3.422,0,53.099,1.024,65.477,5.809C116.962,162.959,120.873,161.763,120.873,164.327z" fill="#F9D54B"/><g><path d="M160.642,130.159c-0.675,0-1.33-0.4-1.699-1.12c-0.562-1.091-0.26-2.506,0.678-3.162    c1.124-0.784,4.284-3.106,5.416-4.425c0.771-0.898,2.027-0.898,2.801,0c0.772,0.9,0.772,2.358,0,3.258    c-1.681,1.953-5.724,4.8-6.181,5.117C161.339,130.052,160.986,130.159,160.642,130.159z" fill="#F9D54B"/></g><g><path d="M153.676,126.168c-0.446-0.167-0.85-0.482-1.136-0.929c-0.698-1.098-0.416-2.584,0.632-3.317    c0.301-0.21,0.361-0.638,0.372-0.874c0.028-0.705-0.308-1.767-1.34-2.634c-0.983-0.826-1.141-2.332-0.352-3.361    c0.788-1.029,2.222-1.196,3.205-0.371c2.004,1.685,3.144,4.143,3.04,6.575c-0.081,1.941-0.954,3.636-2.394,4.643    C155.083,126.335,154.333,126.409,153.676,126.168z" fill="#F9D54B"/></g><g><path d="M144.817,124.006c-0.67,0-1.333-0.306-1.784-0.896c-0.756-0.993-0.638-2.423,0.248-3.266    c0.5-1.004,0.168-4.993-1.22-6.446c-0.891-0.934-0.891-2.448,0-3.383c0.892-0.934,2.336-0.934,3.225,0    c2.097,2.2,2.896,6.17,2.752,8.925c-0.11,2.077-0.733,3.647-1.8,4.545C145.818,123.836,145.315,124.006,144.817,124.006z" fill="#F9D54B"/></g><g><path d="M133.415,116.32c-0.026,0-0.056,0-0.084-0.002c-1.257-0.048-2.241-1.154-2.196-2.475    c0.056-1.706-0.002-4.961-0.401-6.433c-0.347-1.271,0.354-2.593,1.563-2.956c1.211-0.362,2.474,0.372,2.82,1.643    c0.73,2.678,0.595,7.389,0.575,7.918C135.647,115.304,134.639,116.32,133.415,116.32z" fill="#F9D54B"/></g><g><path d="M122.013,114.784c-0.239,0-0.482-0.042-0.721-0.124c-1.196-0.417-1.841-1.773-1.443-3.025    c0.175-0.551,0.488-1.295,0.924-2.324c1.894-4.48,2.824-7.412,2.772-8.74c-1.693,0.159-5.733,2.051-8.008,3.117    c-2.403,1.126-4.479,2.098-6.023,2.486c-1.223,0.308-2.454-0.482-2.75-1.767c-0.293-1.285,0.461-2.575,1.685-2.883    c1.135-0.287,3.217-1.262,5.229-2.203c5.962-2.793,11.595-5.431,13.721-1.638c1.729,3.083-0.176,8.176-2.458,13.57    c-0.338,0.803-0.661,1.561-0.765,1.895C123.856,114.149,122.967,114.784,122.013,114.784z" fill="#F9D54B"/></g><path d="M95.3,162.104c6.021-0.827,11.437-1.468,13.834-2.3c-1.373-0.452-2.881-0.984-4.55-1.629   c-12.378-4.784-62.055-5.809-65.477-5.809c-2.464,0-2.815,3.905-2.574,7.496C46.907,164.823,86.605,163.302,95.3,162.104z" fill="#7FDFE2"/><path d="M189.286,123.256c-5.864,15.164-26.137,29.114-38.194,30.789c-13.143,1.817-24.547,4.939-24.547,4.939   s-4.701-0.814-9.364-2.668c0.108,0.813,0.273,1.705,0.518,2.71c9.448,1.465,19.13,2.7,28.421,3.418   c24.438,1.894,47.352-3.653,52.608-6.149c13.683-6.489,21.498-9.226,22.152-21.864   C221.421,123.902,208.551,118.936,189.286,123.256z" fill="#F9D54B"/><path d="M189.769,161.591c-1.266,3.543,5.375,3.077,7.818,1.711c2.442-1.368,22.477-15.377,23.78-17.427   c1.304-2.052,0.977-14.691-0.977-12.984c-1.954,1.708,0.489,9.738-10.099,16.572C199.704,156.295,190.258,160.225,189.769,161.591z   " fill="#F9D54B"/><path d="M212.234,123.03c-2.289,4.248-2.438,11.593-9.272,15.327c-7.818,4.271-26.711,14.009-24.105,17.596   c1.918,2.642,24.048-3.975,36.959-9.287c3.041-2.912,4.771-6.582,5.064-12.235C221.141,129.33,217.745,123.981,212.234,123.03z" fill="#7FDFE2"/><path d="M38.129,143.312c1.726-3.016,34.206-5.125,43.979-2.393c9.771,2.735,61.893,17.084,76.876,16.399   c14.986-0.682,54.238-10.591,59.777-14.69c-3.584,8.199-23.618,19.134-34.693,21.526c-11.074,2.39-37.137,4.439-51.796,3.757   c-14.657-0.682-38.764-12.643-51.143-12.643c-12.378,0-42.674,1.711-43.325-1.024C37.154,151.513,37.154,145.021,38.129,143.312z" fill="#EDEDED"/></g></svg>